{
  "accessors": [
    {
      "bufferView": 2,
      "componentType": 5126,
      "count": 2791,
      "max": [
        0.38095900416374207,
        0.48287299275398254,
        0.4353950023651123
      ],
      "min": [
        -0.38095900416374207,
        -0.48287299275398254,
        -0.22604699432849884
      ],
      "type": "VEC3"
    },
    {
      "bufferView": 2,
      "byteOffset": 33492,
      "componentType": 5126,
      "count": 2791,
      "max": [
        1,
        1,
        1
      ],
      "min": [
        -1,
        -1,
        -1
      ],
      "type": "VEC3"
    },
    {
      "bufferView": 3,
      "componentType": 5126,
      "count": 2791,
      "max": [
        1,
        1,
        1,
        1
      ],
      "min": [
        -1,
        -0.99315142631530762,
        -1,
        -1
      ],
      "type": "VEC4"
    },
    {
      "bufferView": 1,
      "componentType": 5126,
      "count": 2791,
      "max": [
        0.97604399919509888,
        0.99853897094726562
      ],
      "min": [
        0.098299600183963776,
        0.19873000681400299
      ],
      "type": "VEC2"
    },
    {
      "bufferView": 0,
      "componentType": 5125,
      "count": 14808,
      "max": [
        2790
      ],
      "min": [
        0
      ],
      "type": "SCALAR"
    },
    {
      "bufferView": 2,
      "byteOffset": 66984,
      "componentType": 5126,
      "count": 436,
      "max": [
        0.19761799275875092,
        0.32304298877716064,
        0.26899999380111694
      ],
      "min": [
        -0.19659499824047089,
        -0.25503399968147278,
        -0.20175400376319885
      ],
      "type": "VEC3"
    },
    {
      "bufferView": 2,
      "byteOffset": 72216,
      "componentType": 5126,
      "count": 436,
      "max": [
        0.99923449754714966,
        0.99996012449264526,
        0.99940097332000732
      ],
      "min": [
        -0.99975234270095825,
        -0.9896092414855957,
        -0.99975454807281494
      ],
      "type": "VEC3"
    },
    {
      "bufferView": 3,
      "byteOffset": 44656,
      "componentType": 5126,
      "count": 436,
      "max": [
        0.99999874830245972,
        0.99741178750991821,
        1,
        1
      ],
      "min": [
        -0.99999988079071045,
        -0.99163705110549927,
        -0.99999994039535522,
        1
      ],
      "type": "VEC4"
    },
    {
      "bufferView": 1,
      "byteOffset": 22328,
      "componentType": 5126,
      "count": 436,
      "max": [
        0.88641500473022461,
        0.99907499551773071
      ],
      "min": [
        0.00083923002239316702,
        0.29552298784255981
      ],
      "type": "VEC2"
    },
    {
      "bufferView": 0,
      "byteOffset": 59232,
      "componentType": 5125,
      "count": 2088,
      "max": [
        435
      ],
      "min": [
        0
      ],
      "type": "SCALAR"
    },
    {
      "bufferView": 2,
      "byteOffset": 77448,
      "componentType": 5126,
      "count": 50,
      "max": [
        0.0098690101876854897,
        0.062394101172685623,
        0.083269603550434113
      ],
      "min": [
        -0.011742499656975269,
        -0.17604300379753113,
        -0.13039800524711609
      ],
      "type": "VEC3"
    },
    {
      "bufferView": 2,
      "byteOffset": 78048,
      "componentType": 5126,
      "count": 50,
      "max": [
        0.98541355133056641,
        1,
        0.99354499578475952
      ],
      "min": [
        -0.98541510105133057,
        -0.91613352298736572,
        -0.98541355133056641
      ],
      "type": "VEC3"
    },
    {
      "bufferView": 3,
      "byteOffset": 51632,
      "componentType": 5126,
      "count": 50,
      "max": [
        0.33652779459953308,
        0.99787420034408569,
        0.91610300540924072,
        1
      ],
      "min": [
        -0.48735606670379639,
        -0.98537951707839966,
        -0.99748814105987549,
        1
      ],
      "type": "VEC4"
    },
    {
      "bufferView": 1,
      "byteOffset": 25816,
      "componentType": 5126,
      "count": 50,
      "max": [
        0.90163600444793701,
        0.99132698774337769
      ],
      "min": [
        0.83552199602127075,
        0.88426202535629272
      ],
      "type": "VEC2"
    },
    {
      "bufferView": 0,
      "byteOffset": 67584,
      "componentType": 5125,
      "count": 240,
      "max": [
        49
      ],
      "min": [
        0
      ],
      "type": "SCALAR"
    },
    {
      "bufferView": 2,
      "byteOffset": 78648,
      "componentType": 5126,
      "count": 273,
      "max": [
        0.18420499563217163,
        0.30343601107597351,
        0.46883499622344971
      ],
      "min": [
        -0.18420499563217163,
        -0.48186001181602478,
        -0.23405399918556213
      ],
      "type": "VEC3"
    },
    {
      "bufferView": 2,
      "byteOffset": 81924,
      "componentType": 5126,
      "count": 273,
      "max": [
        1,
        1,
        1
      ],
      "min": [
        -1,
        -1,
        -1
      ],
      "type": "VEC3"
    },
    {
      "bufferView": 3,
      "byteOffset": 52432,
      "componentType": 5126,
      "count": 273,
      "max": [
        1,
        1,
        1,
        1
      ],
      "min": [
        -1,
        -0.099176421761512756,
        -1,
        -1
      ],
      "type": "VEC4"
    },
    {
      "bufferView": 1,
      "byteOffset": 26216,
      "componentType": 5126,
      "count": 273,
      "max": [
        0.99836301803588867,
        0.94208002090454102
      ],
      "min": [
        0.0056869201362133026,
        0.0012912700185552239
      ],
      "type": "VEC2"
    },
    {
      "bufferView": 0,
      "byteOffset": 68544,
      "componentType": 5125,
      "count": 684,
      "max": [
        272
      ],
      "min": [
        0
      ],
      "type": "SCALAR"
    }
  ],
  "asset": {
    "extras": {
      "author": "Duznot (https://sketchfab.com/duz_vr)",
      "license": "CC-BY-4.0 (http://creativecommons.org/licenses/by/4.0/)",
      "source": "https://sketchfab.com/3d-models/santas-chair-40b968d67056404d8e246662b04d1f0c",
      "title": "Santa's Chair"
    },
    "generator": "Sketchfab-9.76.0",
    "version": "2.0"
  },
  "bufferViews": [
    {
      "buffer": 0,
      "byteLength": 71280,
      "byteOffset": 0,
      "name": "floatBufferViews",
      "target": 34963
    },
    {
      "buffer": 0,
      "byteLength": 28400,
      "byteOffset": 71280,
      "byteStride": 8,
      "name": "floatBufferViews",
      "target": 34962
    },
    {
      "buffer": 0,
      "byteLength": 85200,
      "byteOffset": 99680,
      "byteStride": 12,
      "name": "floatBufferViews",
      "target": 34962
    },
    {
      "buffer": 0,
      "byteLength": 56800,
      "byteOffset": 184880,
      "byteStride": 16,
      "name": "floatBufferViews",
      "target": 34962
    }
  ],
  "buffers": [
    {
      "byteLength": 241680,
      "uri": "scene.bin"
    }
  ],
  "images": [
    {
      "uri": "textures/Chair_baseColor.jpeg"
    },
    {
      "uri": "textures/Chair_metallicRoughness.png"
    },
    {
      "uri": "textures/Chair_normal.png"
    }
  ],
  "materials": [
    {
      "doubleSided": true,
      "name": "Chair",
      "normalTexture": {
        "index": 2,
        "scale": 1,
        "texCoord": 0
      },
      "occlusionTexture": {
        "index": 1,
        "strength": 1,
        "texCoord": 0
      },
      "pbrMetallicRoughness": {
        "baseColorFactor": [
          1,
          1,
          1,
          1
        ],
        "baseColorTexture": {
          "index": 0,
          "texCoord": 0
        },
        "metallicFactor": 1,
        "metallicRoughnessTexture": {
          "index": 1,
          "texCoord": 0
        },
        "roughnessFactor": 1
      }
    }
  ],
  "meshes": [
    {
      "name": "defaultMaterial",
      "primitives": [
        {
          "attributes": {
            "NORMAL": 1,
            "POSITION": 0,
            "TANGENT": 2,
            "TEXCOORD_0": 3
          },
          "indices": 4,
          "material": 0,
          "mode": 4
        }
      ]
    },
    {
      "name": "defaultMaterial",
      "primitives": [
        {
          "attributes": {
            "NORMAL": 6,
            "POSITION": 5,
            "TANGENT": 7,
            "TEXCOORD_0": 8
          },
          "indices": 9,
          "material": 0,
          "mode": 4
        }
      ]
    },
    {
      "name": "defaultMaterial",
      "primitives": [
        {
          "attributes": {
            "NORMAL": 11,
            "POSITION": 10,
            "TANGENT": 12,
            "TEXCOORD_0": 13
          },
          "indices": 14,
          "material": 0,
          "mode": 4
        }
      ]
    },
    {
      "name": "defaultMaterial",
      "primitives": [
        {
          "attributes": {
            "NORMAL": 16,
            "POSITION": 15,
            "TANGENT": 17,
            "TEXCOORD_0": 18
          },
          "indices": 19,
          "material": 0,
          "mode": 4
        }
      ]
    }
  ],
  "nodes": [
    {
      "children": [
        1
      ],
      "name": "RootNode (gltf orientation matrix)",
      "rotation": [
        -0.70710678118654746,
        -0,
        -0,
        0.70710678118654757
      ]
    },
    {
      "children": [
        2
      ],
      "matrix": [
        0.19886454939842224,
        -0.979594886302948,
        -0.029098080471158028,
        0,
        0.97986996173858643,
        0.19821351766586304,
        0.023796830326318741,
        0,
        -0.017543621361255646,
        -0.033244680613279343,
        0.99929326772689819,
        0,
        0.11502722650766373,
        -0.094121970236301422,
        0.0027935162652283907,
        1
      ],
      "name": "RootNode (model correction matrix)"
    },
    {
      "children": [
        3,
        5,
        7,
        9
      ],
      "matrix": [
        1,
        0,
        0,
        0,
        0,
        -4.3711390063094768e-08,
        0.999999999999999,
        0,
        0,
        -0.999999999999999,
        -4.3711390063094768e-08,
        0,
        0,
        0,
        0,
        1
      ],
      "name": "Collada visual scene group"
    },
    {
      "children": [
        4
      ],
      "name": "BezierCurve.001"
    },
    {
      "mesh": 0,
      "name": "defaultMaterial"
    },
    {
      "children": [
        6
      ],
      "name": "Cube.003"
    },
    {
      "mesh": 1,
      "name": "defaultMaterial"
    },
    {
      "children": [
        8
      ],
      "name": "Cube.002"
    },
    {
      "mesh": 2,
      "name": "defaultMaterial"
    },
    {
      "children": [
        10
      ],
      "name": "Cube.001"
    },
    {
      "mesh": 3,
      "name": "defaultMaterial"
    }
  ],
  "samplers": [
    {
      "magFilter": 9729,
      "minFilter": 9987,
      "wrapS": 10497,
      "wrapT": 10497
    }
  ],
  "scene": 0,
  "scenes": [
    {
      "name": "OSG_Scene",
      "nodes": [
        0
      ]
    }
  ],
  "textures": [
    {
      "sampler": 0,
      "source": 0
    },
    {
      "sampler": 0,
      "source": 1
    },
    {
      "sampler": 0,
      "source": 2
    }
  ]
}

